<svg id="Layer_1" data-name="Layer 1" xmlns="http://www.w3.org/2000/svg" viewBox="0 0 78 78.01"><defs><style>.cls-2{fill:#4ce3c5}.cls-3{isolation:isolate}.cls-5{fill:#265381}</style></defs><path d="M77.91 39a38.77 38.77 0 0 1-4.57 18.32c-.1.2-.21.4-.33.59a38.45 38.45 0 0 1-6.15 8.29 37.42 37.42 0 0 1-3.07 2.8 39.25 39.25 0 0 1-8.37 5.34A41.66 41.66 0 0 1 51 76.12a41.38 41.38 0 0 1-4.11 1.08 39 39 0 0 1-21.69-1.71A38.34 38.34 0 0 1 19.77 73q-1.44-.81-2.79-1.74a40.72 40.72 0 0 1-4.66-3.73 39.43 39.43 0 0 1-3-3.2c-.44-.5-.85-1-1.24-1.54a37.93 37.93 0 0 1-2.29-3.34c-.16-.23-.3-.47-.44-.72A38.52 38.52 0 0 1 0 39a39 39 0 0 1 78 0z" fill="#edf7f6"/><path class="cls-2" d="M8 47.45C8 56 22.1 62.92 39.5 62.92S71 56 71 47.45 36 64.52 36 36.52c0-21-28 2.38-28 10.93z"/><g class="cls-3"><path d="M50.12 28.81L39.26 54h-7.6l11-24.34H29.77v-6.3h20.35z" fill="#fff"/></g><g class="cls-3"><g class="cls-3"><path class="cls-5" d="M49.12 28.81L38.26 54h-7.6l11-24.34H28.77v-6.3h20.35z"/></g></g><g class="cls-3"><g class="cls-3"><path class="cls-2" d="M57.26 27.94V30h-1.08a3.12 3.12 0 0 1-2.18-.68 2.87 2.87 0 0 1-.76-2.25V24.2h-1.02v-2h1.06v-1.94h2.39v1.92h1.57v2h-1.57v2.91a.69.69 0 0 0 .83.83zM65.7 23a3.6 3.6 0 0 1 .8 2.47V30h-2.4v-4.26a1.76 1.76 0 0 0-.41-1.23 1.47 1.47 0 0 0-1.1-.44 1.49 1.49 0 0 0-1.16.46 1.86 1.86 0 0 0-.43 1.32V30h-2.4V19.62H61v4a2.56 2.56 0 0 1 1-1.11 3 3 0 0 1 1.57-.41 2.69 2.69 0 0 1 2.13.9z"/></g></g><g class="cls-3"><g class="cls-3"><path class="cls-5" d="M57.26 26.94V29h-1.08a3.12 3.12 0 0 1-2.18-.68 2.87 2.87 0 0 1-.76-2.25V23.2h-1.02v-2h1.06v-1.94h2.39v1.92h1.57v2h-1.57v2.91a.69.69 0 0 0 .83.83zM65.7 22a3.6 3.6 0 0 1 .8 2.47V29h-2.4v-4.26a1.76 1.76 0 0 0-.41-1.23 1.47 1.47 0 0 0-1.1-.44 1.49 1.49 0 0 0-1.16.46 1.86 1.86 0 0 0-.43 1.32V29h-2.4V18.62H61v4a2.56 2.56 0 0 1 1-1.11 3 3 0 0 1 1.57-.41 2.69 2.69 0 0 1 2.13.9z"/></g></g></svg>