<svg id="Layer_1" data-name="Layer 1" xmlns="http://www.w3.org/2000/svg" viewBox="0 0 78 78"><defs><style>.cls-2{fill:#4ce3c5}.cls-3{isolation:isolate}.cls-5{fill:#265381}</style></defs><path d="M77.91 39a38.77 38.77 0 0 1-4.57 18.32c-.1.2-.21.4-.33.59a38.45 38.45 0 0 1-6.15 8.29 37.42 37.42 0 0 1-3.07 2.8 39.25 39.25 0 0 1-8.37 5.34A41.66 41.66 0 0 1 51 76.12a41.38 41.38 0 0 1-4.11 1.08 39 39 0 0 1-21.69-1.71A38.34 38.34 0 0 1 19.77 73q-1.44-.81-2.79-1.74a40.72 40.72 0 0 1-4.66-3.73 39.43 39.43 0 0 1-3-3.2c-.44-.5-.85-1-1.24-1.54a37.93 37.93 0 0 1-2.29-3.34c-.16-.23-.3-.47-.44-.72A38.52 38.52 0 0 1 0 39a39 39 0 0 1 78 0z" fill="#edf7f6"/><path class="cls-2" d="M8 47.45C8 56 22.1 62.92 39.5 62.92S71 56 71 47.45 36 64.52 36 36.52c0-21-28 2.38-28 10.93z"/><g class="cls-3"><path d="M42 29.24a3.28 3.28 0 0 0-2.51-.95 3.63 3.63 0 0 0-3.54 2.3q-1.06 2.29-1 7.06a5.57 5.57 0 0 1 2.51-2.77 8.3 8.3 0 0 1 4.14-1 8.94 8.94 0 0 1 6.78 2.6q2.49 2.6 2.49 7.44a11.39 11.39 0 0 1-1.24 5.41A8.66 8.66 0 0 1 46 53a12.14 12.14 0 0 1-5.82 1.31q-6.64 0-9.18-4.12t-2.55-11.43q0-8.4 2.7-12.38t8.8-4c3.2 0 5.64.91 7.3 2.73A11.15 11.15 0 0 1 50 32h-6.83A5.26 5.26 0 0 0 42 29.24zm-5.36 17.53A4.24 4.24 0 0 0 39.91 48a4.16 4.16 0 0 0 3-1.07A4.2 4.2 0 0 0 44 43.79a4.24 4.24 0 0 0-1.12-3.16 4.16 4.16 0 0 0-3-1.09 4.63 4.63 0 0 0-3.09 1.05 3.67 3.67 0 0 0-1.24 3 4.58 4.58 0 0 0 1.09 3.18z" fill="#fff"/></g><g class="cls-3"><g class="cls-3"><path class="cls-5" d="M41 30.24a3.28 3.28 0 0 0-2.51-.95 3.63 3.63 0 0 0-3.54 2.3q-1.06 2.29-1 7.06a5.57 5.57 0 0 1 2.51-2.77 8.3 8.3 0 0 1 4.14-1 8.94 8.94 0 0 1 6.78 2.6q2.49 2.6 2.49 7.44a11.39 11.39 0 0 1-1.24 5.41A8.66 8.66 0 0 1 45 54a12.14 12.14 0 0 1-5.82 1.31q-6.64 0-9.18-4.12t-2.55-11.43q0-8.4 2.7-12.38t8.8-4c3.2 0 5.64.91 7.3 2.73A11.15 11.15 0 0 1 49 33h-6.83A5.26 5.26 0 0 0 41 30.24zm-5.36 17.53A4.24 4.24 0 0 0 38.91 49a4.16 4.16 0 0 0 3-1.07A4.2 4.2 0 0 0 43 44.79a4.24 4.24 0 0 0-1.12-3.16 4.16 4.16 0 0 0-3-1.09 4.63 4.63 0 0 0-3.09 1.05 3.67 3.67 0 0 0-1.24 3 4.58 4.58 0 0 0 1.09 3.18z"/></g></g><g class="cls-3"><g class="cls-3"><path class="cls-2" d="M55.26 27.94V30h-1.08a3.12 3.12 0 0 1-2.18-.68 2.87 2.87 0 0 1-.76-2.25V24.2h-1.02v-2h1.06v-1.94h2.39v1.92h1.57v2h-1.57v2.91a.69.69 0 0 0 .83.83zM63.7 23a3.6 3.6 0 0 1 .8 2.47V30h-2.4v-4.26a1.76 1.76 0 0 0-.41-1.23 1.64 1.64 0 0 0-2.26 0 1.86 1.86 0 0 0-.43 1.34V30h-2.4V19.63H59v4a2.56 2.56 0 0 1 1-1.11 3 3 0 0 1 1.57-.41 2.69 2.69 0 0 1 2.13.89z"/></g></g><g class="cls-3"><g class="cls-3"><path class="cls-5" d="M55.26 26.94V29h-1.08a3.12 3.12 0 0 1-2.18-.68 2.87 2.87 0 0 1-.76-2.25V23.2h-1.02v-2h1.06v-1.94h2.39v1.92h1.57v2h-1.57v2.91a.69.69 0 0 0 .83.83zM63.7 22a3.6 3.6 0 0 1 .8 2.47V29h-2.4v-4.26a1.76 1.76 0 0 0-.41-1.23 1.64 1.64 0 0 0-2.26 0 1.86 1.86 0 0 0-.43 1.34V29h-2.4V18.63H59v4a2.56 2.56 0 0 1 1-1.11 3 3 0 0 1 1.57-.41 2.69 2.69 0 0 1 2.13.89z"/></g></g></svg>